<?xml version="1.0" standalone="no"?><!DOCTYPE svg PUBLIC "-//W3C//DTD SVG 1.1//EN"
        "http://www.w3.org/Graphics/SVG/1.1/DTD/svg11.dtd">
<svg t="1627199053081" class="icon" viewBox="0 0 1024 1024" version="1.1" xmlns="http://www.w3.org/2000/svg" p-id="2044"
     xmlns:xlink="http://www.w3.org/1999/xlink" width="200" height="200">
    <defs>
        <style type="text/css">@font-face { font-family: feedback-iconfont; src:
            url("//at.alicdn.com/t/font_1031158_1uhr8ri0pk5.eot?#iefix") format("embedded-opentype"),
            url("//at.alicdn.com/t/font_1031158_1uhr8ri0pk5.woff2") format("woff2"),
            url("//at.alicdn.com/t/font_1031158_1uhr8ri0pk5.woff") format("woff"),
            url("//at.alicdn.com/t/font_1031158_1uhr8ri0pk5.ttf") format("truetype"),
            url("//at.alicdn.com/t/font_1031158_1uhr8ri0pk5.svg#iconfont") format("svg"); }
        </style>
    </defs>
    <path d="M616.533333 497.066667c14.933333 0 27.733333-12.8 27.733334-27.733334 0-14.933333-12.8-27.733333-27.733334-27.733333h-57.6v-2.133333l66.133334-68.266667c10.666667-12.8 4.266667-21.333333-6.4-34.133333-10.666667-10.666667-29.866667-12.8-38.4-4.266667l-57.6 61.866667-61.866667-61.866667c-8.533333-8.533333-23.466667-4.266667-34.133333 6.4s-12.8 25.6-6.4 34.133333l64 61.866667c0 2.133333-2.133333 4.266667-2.133334 4.266667h-51.2c-14.933333 0-27.733333 12.8-27.733333 27.733333 0 14.933333 12.8 27.733333 27.733333 27.733333h55.466667v27.733334h-55.466667c-14.933333 0-27.733333 12.8-27.733333 27.733333 0 14.933333 12.8 27.733333 27.733333 27.733333h55.466667v34.133334c0 19.2 14.933333 36.266667 36.266667 34.133333 19.2 0 36.266667-14.933333 36.266666-34.133333v-34.133334h57.6c14.933333 0 27.733333-12.8 27.733334-27.733333 0-14.933333-12.8-27.733333-27.733334-27.733333h-57.6v-27.733334l57.6 2.133334z"
          p-id="2045"></path>
    <path d="M759.466667 136.533333h-469.333334c-46.933333 0-85.333333 32-85.333333 72.533334v652.8c0 23.466667 12.8 44.8 34.133333 57.6 12.8 8.533333 29.866667 12.8 44.8 12.8 14.933333 0 29.866667-4.266667 42.666667-10.666667l183.466667-102.4c8.533333-4.266667 21.333333-4.266667 29.866666 0l183.466667 102.4c27.733333 14.933333 61.866667 14.933333 89.6 0 21.333333-12.8 34.133333-34.133333 34.133333-57.6V209.066667c-2.133333-40.533333-40.533333-72.533333-87.466666-72.533334z m12.8 729.6c-6.4 2.133333-14.933333 2.133333-19.2-2.133333l-183.466667-102.4c-12.8-8.533333-29.866667-10.666667-44.8-10.666667-14.933333 0-32 4.266667-44.8 10.666667l-183.466667 102.4c-6.4 2.133333-12.8 4.266667-19.2 2.133333l-8.533333-4.266666V209.066667c0-2.133333 6.4-8.533333 21.333333-8.533334h469.333334c14.933333 0 21.333333 6.4 21.333333 8.533334v652.8l-8.533333 4.266666z"
          p-id="2046"></path>
</svg>