<?xml version="1.0" standalone="no"?><!DOCTYPE svg PUBLIC "-//W3C//DTD SVG 1.1//EN" "http://www.w3.org/Graphics/SVG/1.1/DTD/svg11.dtd"><svg t="1628729488278" class="icon" viewBox="0 0 1024 1024" version="1.1" xmlns="http://www.w3.org/2000/svg" p-id="594" xmlns:xlink="http://www.w3.org/1999/xlink" width="200" height="200"><defs><style type="text/css"></style></defs><path d="M512.168 909.46a395.544 395.544 0 0 1-281.29-116.32 397.824 397.824 0 0 1-1e-8-562.264l2.83600001-2.176a394.075 394.075 0 0 1 278.454-114.176A398.095 398.095 0 0 1 793.43 230.87600001c72.09600001 72.126 116.03 171.536 116.03 281.616a395.22 395.22 0 0 1-116.03 280.65199999l-2.518 2.176a395.205 395.205 0 0 1-278.744 114.14z m-218.573-178.433a307.849 307.849 0 0 0 218.573 90.329c84.627 0 160.83299999-34.21 216.663-88.448l2.199-2.2c55.512-55.801 90.624-133.249 90.624-218.225A309.489 309.489 0 0 0 731.03 293.59c-56.12-55.82999999-133.568-90.93599999-218.862-90.936a308.4 308.4 0 0 0-216.692 89.054l-1.881 1.88200001c-56.466 55.8-90.936 132.961-90.936 218.89199999a305.92 305.92 0 0 0 90.936 218.224l0 0.31899999z m58.624-247.712l189.957-189.47a39.748 39.748 0 1 1 56.28400001 56.14l-161.81700001 161.40799999L598.46 672.801a39.748 39.748 0 1 1-56.28400001 56.141L352.215 539.46a39.628 39.628 0 0 1 0-56.141z" p-id="595"></path></svg>